<svg width="500" height="352" viewBox="0 0 500 352" fill="none" xmlns="http://www.w3.org/2000/svg">
  <rect width="500" height="352" rx="24" fill="#EAE7E2"/>
  <rect x="1" y="1" width="498" height="350" rx="23" stroke="#000000" stroke-opacity="0.06"/>
  <rect x="38" y="38" width="105" height="276" rx="10" fill="#F9F7F3"/>
  <rect x="160" y="38" width="302" height="276" rx="10" fill="#FEFEFD"/>
  <rect x="59" y="67" width="42" height="5" rx="2.5" fill="#BEB8AF"/>
  <rect x="59" y="99" width="54" height="4" rx="2" fill="#D1CBC3"/>
  <rect x="59" y="125" width="46" height="4" rx="2" fill="#D1CBC3"/>
  <rect x="59" y="151" width="51" height="4" rx="2" fill="#D1CBC3"/>
  <circle cx="185" cy="61" r="10" fill="#B78C6C"/>
  <rect x="202" y="53" width="210" height="10" rx="5" fill="#1E1E1E"/>
  <rect x="202" y="72" width="142" height="6" rx="3" fill="#A09A91"/>
  <rect x="190" y="116" width="112" height="92" rx="10" fill="url(#grad1)"/>
  <rect x="318" y="116" width="112" height="92" rx="10" fill="url(#grad2)"/>
  <rect x="190" y="226" width="112" height="66" rx="10" fill="url(#grad3)"/>
  <rect x="318" y="226" width="112" height="66" rx="10" fill="url(#grad4)"/>
  <defs>
    <linearGradient id="grad1" x1="190" y1="116" x2="302" y2="208" gradientUnits="userSpaceOnUse">
      <stop stop-color="#F5F7FB"/>
      <stop offset="1" stop-color="#A5A9B9"/>
    </linearGradient>
    <linearGradient id="grad2" x1="318" y1="116" x2="430" y2="208" gradientUnits="userSpaceOnUse">
      <stop stop-color="#D8C0AF"/>
      <stop offset="1" stop-color="#5C6C9D"/>
    </linearGradient>
    <linearGradient id="grad3" x1="190" y1="226" x2="302" y2="292" gradientUnits="userSpaceOnUse">
      <stop stop-color="#9ABAC2"/>
      <stop offset="1" stop-color="#F0E9DD"/>
    </linearGradient>
    <linearGradient id="grad4" x1="318" y1="226" x2="430" y2="292" gradientUnits="userSpaceOnUse">
      <stop stop-color="#C8D5E1"/>
      <stop offset="1" stop-color="#7C96B5"/>
    </linearGradient>
  </defs>
</svg>
