<svg width="500" height="352" viewBox="0 0 500 352" fill="none" xmlns="http://www.w3.org/2000/svg">
  <rect width="500" height="352" rx="24" fill="#121212"/>
  <rect x="1" y="1" width="498" height="350" rx="23" stroke="#FFFFFF" stroke-opacity="0.06"/>
  <g opacity="0.6" stroke="#FFFFFF" stroke-opacity="0.18" stroke-width="2">
    <circle cx="66" cy="64" r="7"/><rect x="104" y="57" width="15" height="15" rx="2"/>
    <path d="M153 58H168V73H153V58Z"/><circle cx="211" cy="64" r="7"/><path d="M257 57h16v15h-16z"/>
    <path d="M306 58h15v15h-15z"/><circle cx="360" cy="64" r="7"/><path d="M412 57h14v14h-14z"/>
    <path d="M60 110h15v15H60z"/><circle cx="114" cy="117" r="7"/><path d="M158 109h15v15h-15z"/>
    <circle cx="212" cy="117" r="7"/><path d="M256 110h15v15h-15z"/><circle cx="310" cy="117" r="7"/>
    <path d="M354 109h15v15h-15z"/><circle cx="408" cy="117" r="7"/><path d="M80 289h15v15H80z"/>
    <circle cx="130" cy="296" r="7"/><path d="M182 289h15v15h-15z"/><circle cx="370" cy="296" r="7"/>
    <path d="M418 289h15v15h-15z"/>
  </g>
  <g opacity="0.28" stroke="#FF6A13" stroke-opacity="0.4" stroke-width="2">
    <circle cx="88" cy="78" r="4"/><circle cx="166" cy="83" r="4"/><circle cx="236" cy="82" r="4"/>
    <circle cx="330" cy="79" r="4"/><circle cx="425" cy="84" r="4"/><circle cx="72" cy="150" r="4"/>
    <circle cx="430" cy="158" r="4"/><circle cx="132" cy="262" r="4"/><circle cx="388" cy="250" r="4"/>
  </g>
  <circle cx="250" cy="176" r="78" fill="#FF6A13" fill-opacity="0.08" stroke="#FF6A13" stroke-opacity="0.35" stroke-width="3"/>
  <circle cx="250" cy="176" r="51" fill="#FF6A13"/>
  <path d="M220 159.5C220 143.2 233.2 130 249.5 130C265.8 130 279 143.2 279 159.5V205.5H220V159.5Z" fill="#1A1A1A"/>
  <circle cx="237.5" cy="170" r="7" fill="#FF6A13"/>
  <circle cx="261.5" cy="170" r="7" fill="#FF6A13"/>
  <path d="M233 191C240 198 252 198 259 191" stroke="#FF6A13" stroke-width="4" stroke-linecap="round"/>
</svg>
