<svg width="500" height="352" viewBox="0 0 500 352" fill="none" xmlns="http://www.w3.org/2000/svg">
  <rect width="500" height="352" rx="24" fill="#120D0A"/>
  <rect x="1" y="1" width="498" height="350" rx="23" stroke="#FFFFFF" stroke-opacity="0.06"/>
  <rect x="78" y="46" width="344" height="260" rx="12" fill="#161616" stroke="#FFFFFF" stroke-opacity="0.08"/>
  <rect x="104" y="70" width="18" height="12" rx="2" fill="#FF6A13"/>
  <rect x="104" y="88" width="18" height="80" rx="2" fill="#FF6A13"/>
  <rect x="145" y="82" width="86" height="5" rx="2.5" fill="#C9C3BB"/>
  <rect x="145" y="92" width="62" height="4" rx="2" fill="#6B655F"/>
  <rect x="145" y="134" width="146" height="13" rx="6.5" fill="#EFE9E1"/>
  <rect x="145" y="157" width="122" height="5" rx="2.5" fill="#736D67"/>
  <rect x="145" y="170" width="156" height="5" rx="2.5" fill="#736D67"/>
  <rect x="219" y="198" width="62" height="10" rx="5" fill="#FF6A13"/>
  <rect x="113" y="226" width="274" height="46" rx="8" fill="#FFFFFF" fill-opacity="0.03" stroke="#FFFFFF" stroke-opacity="0.04"/>
  <g opacity="0.4">
    <rect x="128" y="239" width="10" height="10" rx="2" fill="#2A2A2A"/>
    <rect x="144" y="239" width="10" height="10" rx="2" fill="#2A2A2A"/>
    <rect x="160" y="239" width="10" height="10" rx="2" fill="#2A2A2A"/>
    <rect x="176" y="239" width="10" height="10" rx="2" fill="#2A2A2A"/>
    <rect x="192" y="239" width="10" height="10" rx="2" fill="#2A2A2A"/>
  </g>
  <rect x="0" y="0" width="500" height="352" rx="24" fill="url(#glow)" fill-opacity="0.32"/>
  <defs>
    <radialGradient id="glow" cx="0" cy="0" r="1" gradientUnits="userSpaceOnUse" gradientTransform="translate(250 176) rotate(90) scale(176 250)">
      <stop offset="0.67" stop-color="#000000" stop-opacity="0"/>
      <stop offset="1" stop-color="#FF6A13"/>
    </radialGradient>
  </defs>
</svg>
