<svg width="280" height="68" viewBox="0 0 280 68" fill="none" xmlns="http://www.w3.org/2000/svg">
  <path d="M18 45C22 27 30 26 29 40C28 54 20 55 20 46C20 32 39 22 44 36C47 45 46 55 44 58C41 61 38 59 38 52C38 42 48 30 54 31C63 33 55 58 62 58C67 58 68 45 72 38C76 31 81 28 82 35C83 40 80 53 84 54C88 55 91 46 95 39C99 32 104 28 106 34C108 39 104 53 108 54C113 55 116 42 121 35C124 30 128 28 129 34C130 40 127 52 131 53C135 54 139 47 143 41C147 35 150 31 154 31C159 31 159 40 159 45C159 52 157 60 160 60C164 60 166 47 170 39C174 31 177 25 182 25C188 25 186 36 186 42C186 51 184 59 188 59C192 59 194 50 198 43C202 36 205 31 210 31C216 31 214 40 214 48C214 55 216 60 220 59C225 58 227 48 231 41C235 34 238 29 243 29C249 29 249 41 249 45C249 51 246 56 248 58" stroke="#D8D0C7" stroke-width="2.2" stroke-linecap="round"/>
</svg>
