<svg width="68" height="68" viewBox="0 0 68 68" fill="none" xmlns="http://www.w3.org/2000/svg">
  <rect width="68" height="68" rx="20" fill="#F8F8F8"/>
  <circle cx="34" cy="34" r="24" fill="url(#paint0_linear_219_22)"/>
  <path d="M46.3066 25.5996C43.9557 22.8106 40.5318 21.168 36.5371 21.168C28.9745 21.168 23.3359 27.0195 23.3359 34.8438C23.3359 42.6217 29.0228 48.4717 36.7471 48.4717C40.6419 48.4717 44.0648 47.0338 46.3623 44.0859L42.3037 40.5137C40.9868 42.123 39.3366 42.9121 37.3525 42.9121C33.0097 42.9121 29.9092 39.4537 29.9092 34.8428C29.9092 30.2299 32.8534 26.7266 37.1416 26.7266C39.1264 26.7266 40.7765 27.5696 42.1973 29.333L46.3066 25.5996Z" fill="white"/>
  <defs>
    <linearGradient id="paint0_linear_219_22" x1="18" y1="17" x2="51" y2="51" gradientUnits="userSpaceOnUse">
      <stop stop-color="#00C4CC"/>
      <stop offset="1" stop-color="#7D2AE8"/>
    </linearGradient>
  </defs>
</svg>
