<svg width="68" height="68" viewBox="0 0 68 68" fill="none" xmlns="http://www.w3.org/2000/svg">
  <rect width="68" height="68" rx="20" fill="#050505"/>
  <path d="M34 34.3C34 30.82 36.82 28 40.3 28C43.78 28 46.6 30.82 46.6 34.3C46.6 37.78 43.78 40.6 40.3 40.6C36.82 40.6 34 37.78 34 34.3Z" fill="#1ABCFE"/>
  <path d="M21.4 46.9C21.4 43.42 24.22 40.6 27.7 40.6H34V46.9C34 50.38 31.18 53.2 27.7 53.2C24.22 53.2 21.4 50.38 21.4 46.9Z" fill="#0ACF83"/>
  <path d="M34 15.4V28H40.3C43.78 28 46.6 25.18 46.6 21.7C46.6 18.22 43.78 15.4 40.3 15.4H34Z" fill="#FF7262"/>
  <path d="M21.4 21.7C21.4 25.18 24.22 28 27.7 28H34V15.4H27.7C24.22 15.4 21.4 18.22 21.4 21.7Z" fill="#F24E1E"/>
  <path d="M21.4 34.3C21.4 37.78 24.22 40.6 27.7 40.6H34V28H27.7C24.22 28 21.4 30.82 21.4 34.3Z" fill="#A259FF"/>
</svg>
