<svg width="1200" height="900" viewBox="0 0 1200 900" fill="none" xmlns="http://www.w3.org/2000/svg">
  <rect width="1200" height="900" rx="42" fill="#1D1D1D"/>
  <rect x="56" y="56" width="1088" height="788" rx="30" fill="#202020" stroke="#2F2F2F" stroke-width="2"/>
  <rect x="110" y="110" width="980" height="150" rx="24" fill="#252525"/>
  <rect x="156" y="154" width="210" height="18" rx="9" fill="#E7DDD1"/>
  <rect x="156" y="194" width="316" height="12" rx="6" fill="#9E948A"/>
  <rect x="110" y="304" width="296" height="486" rx="28" fill="#242424"/>
  <rect x="452" y="304" width="296" height="486" rx="28" fill="#242424"/>
  <rect x="794" y="304" width="296" height="486" rx="28" fill="#242424"/>
  <circle cx="258" cy="440" r="74" fill="#CDBFAF"/>
  <rect x="172" y="556" width="172" height="14" rx="7" fill="#DDD2C6"/>
  <rect x="172" y="594" width="146" height="12" rx="6" fill="#9E948A"/>
  <rect x="510" y="366" width="180" height="104" rx="18" fill="#333333"/>
  <rect x="510" y="500" width="180" height="104" rx="18" fill="#6B5D4F"/>
  <rect x="852" y="366" width="180" height="238" rx="18" fill="#CDBFAF"/>
  <rect x="852" y="636" width="180" height="14" rx="7" fill="#DDD2C6"/>
</svg>
