<svg width="1200" height="900" viewBox="0 0 1200 900" fill="none" xmlns="http://www.w3.org/2000/svg">
  <rect width="1200" height="900" rx="42" fill="#1D1D1D"/>
  <rect x="56" y="56" width="1088" height="788" rx="30" fill="#202020" stroke="#2F2F2F" stroke-width="2"/>
  <rect x="110" y="110" width="980" height="680" rx="30" fill="#242424"/>
  <rect x="160" y="160" width="880" height="182" rx="24" fill="#252525"/>
  <rect x="204" y="208" width="176" height="18" rx="9" fill="#E7DDD1"/>
  <rect x="204" y="248" width="248" height="12" rx="6" fill="#9E948A"/>
  <rect x="204" y="288" width="132" height="12" rx="6" fill="#CDBFAF"/>
  <rect x="160" y="384" width="276" height="356" rx="24" fill="#2A2A2A"/>
  <rect x="486" y="384" width="276" height="356" rx="24" fill="#2A2A2A"/>
  <rect x="812" y="384" width="228" height="356" rx="24" fill="#2A2A2A"/>
  <rect x="204" y="430" width="188" height="112" rx="18" fill="#CDBFAF"/>
  <rect x="204" y="566" width="188" height="128" rx="18" fill="#333333"/>
  <rect x="530" y="430" width="188" height="112" rx="18" fill="#6B5D4F"/>
  <rect x="530" y="566" width="188" height="128" rx="18" fill="#333333"/>
  <rect x="856" y="430" width="140" height="14" rx="7" fill="#DDD2C6"/>
  <rect x="856" y="472" width="120" height="12" rx="6" fill="#9E948A"/>
  <rect x="856" y="520" width="140" height="120" rx="18" fill="#CDBFAF"/>
</svg>
