<svg width="500" height="352" viewBox="0 0 500 352" fill="none" xmlns="http://www.w3.org/2000/svg">
  <rect width="500" height="352" rx="24" fill="#151515"/>
  <rect x="1" y="1" width="498" height="350" rx="23" stroke="#FFFFFF" stroke-opacity="0.06"/>
  <rect x="48" y="45" width="192" height="262" rx="8" fill="#EFEDE8"/>
  <rect x="240" y="45" width="212" height="262" rx="8" fill="#1E1E1E"/>
  <rect x="58" y="45" width="9" height="262" fill="#D6D2CA"/>
  <circle cx="94" cy="66" r="8" fill="#B78C6C"/>
  <rect x="108" y="59" width="74" height="5" rx="2.5" fill="#2B2B2B"/>
  <rect x="108" y="69" width="46" height="4" rx="2" fill="#77726A"/>
  <rect x="90" y="112" width="118" height="8" rx="4" fill="#2B2B2B"/>
  <rect x="90" y="130" width="102" height="5" rx="2.5" fill="#8B8479"/>
  <rect x="90" y="146" width="95" height="5" rx="2.5" fill="#8B8479"/>
  <rect x="90" y="177" width="60" height="5" rx="2.5" fill="#FF6A13"/>
  <rect x="90" y="190" width="88" height="4" rx="2" fill="#8B8479"/>
  <rect x="90" y="202" width="112" height="4" rx="2" fill="#8B8479"/>
  <circle cx="272" cy="66" r="8" fill="#B78C6C"/>
  <rect x="286" y="59" width="80" height="5" rx="2.5" fill="#EFEDE8"/>
  <rect x="286" y="69" width="50" height="4" rx="2" fill="#847F7A"/>
  <rect x="270" y="113" width="136" height="10" rx="5" fill="#EFEDE8"/>
  <rect x="270" y="132" width="152" height="5" rx="2.5" fill="#7B7670"/>
  <rect x="270" y="147" width="140" height="5" rx="2.5" fill="#7B7670"/>
  <rect x="270" y="183" width="64" height="5" rx="2.5" fill="#FF6A13"/>
  <rect x="270" y="196" width="110" height="4" rx="2" fill="#7B7670"/>
  <rect x="270" y="208" width="126" height="4" rx="2" fill="#7B7670"/>
</svg>
