<svg width="1200" height="900" viewBox="0 0 1200 900" fill="none" xmlns="http://www.w3.org/2000/svg">
  <rect width="1200" height="900" rx="42" fill="#1D1D1D"/>
  <rect x="54" y="54" width="1092" height="792" rx="30" fill="#202020" stroke="#2F2F2F" stroke-width="2"/>
  <rect x="92" y="92" width="182" height="716" rx="22" fill="#181818"/>
  <rect x="128" y="132" width="84" height="14" rx="7" fill="#DDD2C6"/>
  <rect x="128" y="176" width="110" height="10" rx="5" fill="#8E857C"/>
  <rect x="128" y="214" width="90" height="10" rx="5" fill="#8E857C"/>
  <rect x="128" y="252" width="104" height="10" rx="5" fill="#8E857C"/>
  <rect x="310" y="92" width="798" height="164" rx="24" fill="#252525"/>
  <rect x="350" y="132" width="198" height="18" rx="9" fill="#E7DDD1"/>
  <rect x="350" y="170" width="280" height="12" rx="6" fill="#9F968D"/>
  <rect x="350" y="208" width="104" height="12" rx="6" fill="#C9B8A5"/>
  <rect x="310" y="290" width="246" height="230" rx="24" fill="#262626"/>
  <rect x="586" y="290" width="246" height="230" rx="24" fill="#262626"/>
  <rect x="862" y="290" width="246" height="230" rx="24" fill="#262626"/>
  <rect x="348" y="330" width="170" height="96" rx="18" fill="#CBBEAF"/>
  <rect x="624" y="330" width="170" height="96" rx="18" fill="#3A3A3A"/>
  <rect x="900" y="330" width="170" height="96" rx="18" fill="#6C5D4E"/>
  <rect x="310" y="554" width="798" height="254" rx="24" fill="#252525"/>
  <rect x="350" y="594" width="718" height="18" rx="9" fill="#E7DDD1"/>
  <rect x="350" y="634" width="548" height="12" rx="6" fill="#9F968D"/>
  <rect x="350" y="670" width="510" height="12" rx="6" fill="#9F968D"/>
  <rect x="350" y="728" width="132" height="14" rx="7" fill="#C9B8A5"/>
</svg>
